<svg xmlns="http://www.w3.org/2000/svg" xmlns:xlink="http://www.w3.org/1999/xlink" width="2000" zoomAndPan="magnify" viewBox="0 0 1500 1499.999933" height="2000" preserveAspectRatio="xMidYMid meet" version="1.0"><defs><g/><clipPath id="d008d0bb88"><path d="M 648 0.238281 L 911 0.238281 L 911 423 L 648 423 Z M 648 0.238281 " clip-rule="nonzero"/></clipPath><clipPath id="1ca1e48953"><rect x="0" width="917" y="0" height="569"/></clipPath><clipPath id="7720f6d01e"><rect x="0" width="199" y="0" height="37"/></clipPath><clipPath id="6f3388a42c"><rect x="0" width="89" y="0" height="37"/></clipPath></defs><rect x="-150" width="1800" fill="#ffffff" y="-149.999993" height="1799.99992" fill-opacity="1"/><rect x="-150" width="1800" fill="#eeede9" y="-149.999993" height="1799.99992" fill-opacity="1"/><g transform="matrix(1, 0, 0, 1, 290, 462)"><g clip-path="url(#1ca1e48953)"><g fill="#1b1b1b" fill-opacity="1"><g transform="translate(1.512328, 422.60623)"><g><path d="M 0 -258.03125 C 10.300781 -259.425781 21.015625 -261.65625 32.140625 -264.71875 C 43.273438 -267.78125 53.921875 -271.394531 64.078125 -275.5625 C 74.242188 -279.738281 82.945312 -283.914062 90.1875 -288.09375 L 90.1875 -198.328125 C 91.582031 -207.234375 94.851562 -216.832031 100 -227.125 C 105.144531 -237.425781 112.03125 -247.171875 120.65625 -256.359375 C 129.289062 -265.546875 139.660156 -273.128906 151.765625 -279.109375 C 163.878906 -285.097656 177.453125 -288.09375 192.484375 -288.09375 C 198.046875 -288.09375 204.863281 -287.394531 212.9375 -286 C 221.007812 -284.613281 228.941406 -281.484375 236.734375 -276.609375 C 244.535156 -271.742188 251.078125 -263.953125 256.359375 -253.234375 C 261.648438 -242.515625 264.296875 -227.691406 264.296875 -208.765625 L 264.296875 0 L 203.75 0 L 203.75 -229.640625 C 203.75 -243.003906 200.617188 -252.957031 194.359375 -259.5 C 188.097656 -266.039062 179.957031 -269.3125 169.9375 -269.3125 C 158.800781 -269.3125 148.359375 -266.25 138.609375 -260.125 C 128.867188 -254 120.378906 -245.71875 113.140625 -235.28125 C 105.910156 -224.84375 100.273438 -212.941406 96.234375 -199.578125 C 92.203125 -186.210938 90.1875 -172.296875 90.1875 -157.828125 L 90.1875 0 L 29.640625 0 L 29.640625 -228.8125 C 29.640625 -240.21875 27.273438 -247.59375 22.546875 -250.9375 C 17.816406 -254.28125 10.300781 -255.953125 0 -255.953125 Z M 0 -258.03125 "/></g></g></g><g fill="#1b1b1b" fill-opacity="1"><g transform="translate(278.326995, 422.60623)"><g><path d="M 0 -258.03125 C 10.300781 -259.425781 21.015625 -261.65625 32.140625 -264.71875 C 43.273438 -267.78125 53.921875 -271.394531 64.078125 -275.5625 C 74.242188 -279.738281 82.945312 -283.914062 90.1875 -288.09375 L 90.1875 0 L 29.640625 0 L 29.640625 -228.8125 C 29.640625 -240.21875 27.273438 -247.59375 22.546875 -250.9375 C 17.816406 -254.28125 10.300781 -255.953125 0 -255.953125 Z M 22.125 -337.78125 C 22.125 -347.25 25.535156 -355.320312 32.359375 -362 C 39.179688 -368.675781 47.320312 -372.015625 56.78125 -372.015625 C 66.519531 -372.015625 74.726562 -368.675781 81.40625 -362 C 88.09375 -355.320312 91.4375 -347.25 91.4375 -337.78125 C 91.4375 -328.320312 88.09375 -320.179688 81.40625 -313.359375 C 74.726562 -306.535156 66.519531 -303.125 56.78125 -303.125 C 47.320312 -303.125 39.179688 -306.535156 32.359375 -313.359375 C 25.535156 -320.179688 22.125 -328.320312 22.125 -337.78125 Z M 22.125 -337.78125 "/></g></g></g><g fill="#1b1b1b" fill-opacity="1"><g transform="translate(382.288836, 422.60623)"><g><path d="M 162.421875 4.171875 C 142.929688 4.171875 124.695312 0.625 107.71875 -6.46875 C 90.738281 -13.570312 75.707031 -23.453125 62.625 -36.109375 C 49.539062 -48.773438 39.3125 -63.597656 31.9375 -80.578125 C 24.5625 -97.554688 20.875 -115.929688 20.875 -135.703125 C 20.875 -154.898438 23.796875 -173.335938 29.640625 -191.015625 C 35.484375 -208.691406 43.898438 -224.488281 54.890625 -238.40625 C 65.890625 -252.320312 79.320312 -263.382812 95.1875 -271.59375 C 111.0625 -279.8125 129.15625 -283.921875 149.46875 -283.921875 C 177.582031 -283.921875 201.726562 -277.796875 221.90625 -265.546875 C 242.09375 -253.296875 258.3125 -233.535156 270.5625 -206.265625 L 219.203125 -179.125 C 213.078125 -194.707031 205.769531 -209.597656 197.28125 -223.796875 C 188.789062 -237.992188 178.5625 -249.546875 166.59375 -258.453125 C 154.625 -267.359375 140.148438 -271.8125 123.171875 -271.8125 C 108.972656 -271.8125 97.210938 -267.84375 87.890625 -259.90625 C 78.566406 -251.976562 71.535156 -241.820312 66.796875 -229.4375 C 62.066406 -217.050781 59.703125 -204.175781 59.703125 -190.8125 C 59.703125 -165.207031 64.644531 -141.753906 74.53125 -120.453125 C 84.414062 -99.160156 98.472656 -82.179688 116.703125 -69.515625 C 134.929688 -56.847656 156.710938 -50.515625 182.046875 -50.515625 C 197.628906 -50.515625 212.585938 -53.644531 226.921875 -59.90625 C 241.265625 -66.175781 252.472656 -74.460938 260.546875 -84.765625 L 262.625 -84.765625 L 238.828125 -10.859375 C 227.691406 -5.566406 215.515625 -1.738281 202.296875 0.625 C 189.078125 2.988281 175.785156 4.171875 162.421875 4.171875 Z M 162.421875 4.171875 "/></g></g></g><g clip-path="url(#d008d0bb88)"><g fill="#1b1b1b" fill-opacity="1"><g transform="translate(648.665546, 422.60623)"><g><path d="M 0 -389.5625 L 0 -391.640625 C 10.300781 -393.035156 21.015625 -395.265625 32.140625 -398.328125 C 43.273438 -401.390625 53.921875 -405.003906 64.078125 -409.171875 C 74.242188 -413.347656 82.945312 -417.523438 90.1875 -421.703125 L 90.1875 -145.71875 C 99.375 -155.457031 109.1875 -166.171875 119.625 -177.859375 C 130.0625 -189.554688 139.800781 -201.109375 148.84375 -212.515625 C 157.894531 -223.929688 165.269531 -234.300781 170.96875 -243.625 C 176.675781 -252.945312 179.53125 -260.253906 179.53125 -265.546875 C 179.53125 -270.554688 178.066406 -274.519531 175.140625 -277.4375 C 172.222656 -280.363281 167.425781 -281.828125 160.75 -281.828125 L 160.75 -283.921875 L 259.703125 -283.921875 L 259.703125 -281.828125 C 256.640625 -281.828125 251.210938 -279.390625 243.421875 -274.515625 C 235.628906 -269.648438 226.441406 -263.25 215.859375 -255.3125 C 205.285156 -247.382812 194.289062 -238.617188 182.875 -229.015625 C 171.46875 -219.410156 160.472656 -209.664062 149.890625 -199.78125 C 139.316406 -189.90625 129.992188 -180.789062 121.921875 -172.4375 C 134.722656 -179.675781 147.390625 -183.296875 159.921875 -183.296875 C 172.441406 -183.296875 183.78125 -179.398438 193.9375 -171.609375 C 204.101562 -163.816406 212.523438 -149.617188 219.203125 -129.015625 C 224.492188 -113.148438 229.363281 -98.535156 233.8125 -85.171875 C 238.269531 -71.816406 242.722656 -58.390625 247.171875 -44.890625 C 251.628906 -31.390625 256.363281 -16.425781 261.375 0 L 200.828125 0 C 196.929688 -12.25 193.59375 -23.035156 190.8125 -32.359375 C 188.03125 -41.679688 185.382812 -50.445312 182.875 -58.65625 C 180.375 -66.875 177.660156 -75.503906 174.734375 -84.546875 C 171.816406 -93.597656 168.40625 -104.109375 164.5 -116.078125 C 159.21875 -131.660156 153.097656 -142.304688 146.140625 -148.015625 C 139.179688 -153.722656 131.109375 -156.578125 121.921875 -156.578125 C 115.515625 -156.578125 109.945312 -154.90625 105.21875 -151.5625 C 100.488281 -148.21875 96.800781 -144.316406 94.15625 -139.859375 C 91.507812 -135.410156 90.1875 -131.378906 90.1875 -127.765625 L 90.1875 0 L 29.640625 0 L 29.640625 -364.09375 C 29.640625 -375.5 27.273438 -382.59375 22.546875 -385.375 C 17.816406 -388.164062 10.300781 -389.5625 0 -389.5625 Z M 0 -389.5625 "/></g></g></g></g></g></g><g transform="matrix(1, 0, 0, 1, 330, 971)"><g clip-path="url(#7720f6d01e)"><g fill="#1b1b1b" fill-opacity="1"><g transform="translate(0.00258305, 27.277334)"><g><path d="M 7.234375 0 L 2.84375 0 L 2.84375 -23.921875 L 12.9375 -23.921875 C 14.144531 -23.921875 15.253906 -23.722656 16.265625 -23.328125 C 17.273438 -22.929688 18.148438 -22.367188 18.890625 -21.640625 C 19.628906 -20.921875 20.203125 -20.066406 20.609375 -19.078125 C 21.023438 -18.097656 21.234375 -17.03125 21.234375 -15.875 C 21.234375 -14.632812 21.03125 -13.507812 20.625 -12.5 C 20.21875 -11.5 19.648438 -10.632812 18.921875 -9.90625 C 18.191406 -9.175781 17.320312 -8.613281 16.3125 -8.21875 C 15.300781 -7.832031 14.195312 -7.640625 13 -7.640625 L 7.234375 -7.640625 Z M 7.234375 -20.015625 L 7.234375 -11.546875 L 12.796875 -11.546875 C 13.554688 -11.546875 14.242188 -11.734375 14.859375 -12.109375 C 15.472656 -12.492188 15.957031 -13.007812 16.3125 -13.65625 C 16.675781 -14.3125 16.859375 -15.050781 16.859375 -15.875 C 16.859375 -16.59375 16.675781 -17.269531 16.3125 -17.90625 C 15.945312 -18.539062 15.457031 -19.050781 14.84375 -19.4375 C 14.226562 -19.820312 13.53125 -20.015625 12.75 -20.015625 Z M 7.234375 -20.015625 "/></g></g><g transform="translate(21.787481, 27.277334)"><g><path d="M 14.0625 0.515625 C 12.632812 0.515625 11.273438 0.304688 9.984375 -0.109375 C 8.703125 -0.523438 7.523438 -1.113281 6.453125 -1.875 C 5.378906 -2.644531 4.445312 -3.550781 3.65625 -4.59375 C 2.863281 -5.632812 2.25 -6.78125 1.8125 -8.03125 C 1.375 -9.289062 1.15625 -10.613281 1.15625 -12 C 1.15625 -13.394531 1.375 -14.71875 1.8125 -15.96875 C 2.25 -17.21875 2.863281 -18.359375 3.65625 -19.390625 C 4.445312 -20.429688 5.378906 -21.332031 6.453125 -22.09375 C 7.523438 -22.851562 8.703125 -23.441406 9.984375 -23.859375 C 11.273438 -24.273438 12.632812 -24.484375 14.0625 -24.484375 C 15.476562 -24.484375 16.832031 -24.273438 18.125 -23.859375 C 19.414062 -23.441406 20.597656 -22.851562 21.671875 -22.09375 C 22.753906 -21.332031 23.691406 -20.429688 24.484375 -19.390625 C 25.273438 -18.359375 25.882812 -17.21875 26.3125 -15.96875 C 26.75 -14.71875 26.96875 -13.394531 26.96875 -12 C 26.96875 -10.613281 26.75 -9.289062 26.3125 -8.03125 C 25.882812 -6.78125 25.273438 -5.632812 24.484375 -4.59375 C 23.691406 -3.550781 22.753906 -2.644531 21.671875 -1.875 C 20.597656 -1.113281 19.414062 -0.523438 18.125 -0.109375 C 16.84375 0.304688 15.488281 0.515625 14.0625 0.515625 Z M 14.0625 -3.515625 C 15.238281 -3.515625 16.34375 -3.722656 17.375 -4.140625 C 18.414062 -4.566406 19.328125 -5.160156 20.109375 -5.921875 C 20.890625 -6.691406 21.5 -7.59375 21.9375 -8.625 C 22.382812 -9.65625 22.609375 -10.773438 22.609375 -11.984375 C 22.609375 -13.203125 22.382812 -14.328125 21.9375 -15.359375 C 21.5 -16.398438 20.890625 -17.300781 20.109375 -18.0625 C 19.328125 -18.832031 18.414062 -19.425781 17.375 -19.84375 C 16.34375 -20.269531 15.238281 -20.484375 14.0625 -20.484375 C 12.882812 -20.484375 11.78125 -20.269531 10.75 -19.84375 C 9.71875 -19.425781 8.8125 -18.832031 8.03125 -18.0625 C 7.25 -17.289062 6.640625 -16.390625 6.203125 -15.359375 C 5.765625 -14.328125 5.546875 -13.203125 5.546875 -11.984375 C 5.546875 -10.773438 5.765625 -9.65625 6.203125 -8.625 C 6.640625 -7.59375 7.25 -6.691406 8.03125 -5.921875 C 8.8125 -5.160156 9.71875 -4.566406 10.75 -4.140625 C 11.78125 -3.722656 12.882812 -3.515625 14.0625 -3.515625 Z M 14.0625 -3.515625 "/></g></g><g transform="translate(49.924841, 27.277334)"><g><path d="M 7.234375 0 L 2.84375 0 L 2.84375 -23.921875 L 13.171875 -23.921875 C 14.378906 -23.921875 15.488281 -23.734375 16.5 -23.359375 C 17.519531 -22.992188 18.398438 -22.46875 19.140625 -21.78125 C 19.878906 -21.09375 20.453125 -20.269531 20.859375 -19.3125 C 21.273438 -18.351562 21.484375 -17.296875 21.484375 -16.140625 C 21.484375 -15.003906 21.28125 -13.972656 20.875 -13.046875 C 20.46875 -12.128906 19.898438 -11.335938 19.171875 -10.671875 C 18.453125 -10.003906 17.597656 -9.503906 16.609375 -9.171875 L 22.03125 0 L 17 0 L 12.265625 -8.5 C 12.109375 -8.488281 11.953125 -8.484375 11.796875 -8.484375 C 11.648438 -8.484375 11.492188 -8.484375 11.328125 -8.484375 L 7.234375 -8.484375 Z M 7.234375 -20.015625 L 7.234375 -12.171875 L 13.015625 -12.171875 C 13.796875 -12.179688 14.492188 -12.351562 15.109375 -12.6875 C 15.722656 -13.019531 16.207031 -13.484375 16.5625 -14.078125 C 16.914062 -14.671875 17.09375 -15.359375 17.09375 -16.140625 C 17.09375 -16.859375 16.910156 -17.507812 16.546875 -18.09375 C 16.191406 -18.6875 15.703125 -19.15625 15.078125 -19.5 C 14.460938 -19.84375 13.769531 -20.015625 13 -20.015625 Z M 7.234375 -20.015625 "/></g></g><g transform="translate(72.712759, 27.277334)"><g><path d="M 12.25 0 L 7.875 0 L 7.875 -20.015625 L 0.75 -20.015625 L 0.75 -23.921875 L 19.375 -23.921875 L 19.375 -20.015625 L 12.25 -20.015625 Z M 12.25 0 "/></g></g><g transform="translate(92.843553, 27.277334)"><g><path d="M 7.234375 0 L 2.84375 0 L 2.84375 -23.921875 L 19.25 -23.921875 L 19.25 -20 L 7.234375 -20 L 7.234375 -13.09375 L 17.609375 -13.09375 L 17.609375 -9.390625 L 7.234375 -9.390625 Z M 7.234375 0 "/></g></g></g><g fill="#1b1b1b" fill-opacity="1"><g transform="translate(112.780781, 27.277334)"><g><path d="M 14.0625 0.515625 C 12.632812 0.515625 11.273438 0.304688 9.984375 -0.109375 C 8.703125 -0.523438 7.523438 -1.113281 6.453125 -1.875 C 5.378906 -2.644531 4.445312 -3.550781 3.65625 -4.59375 C 2.863281 -5.632812 2.25 -6.78125 1.8125 -8.03125 C 1.375 -9.289062 1.15625 -10.613281 1.15625 -12 C 1.15625 -13.394531 1.375 -14.71875 1.8125 -15.96875 C 2.25 -17.21875 2.863281 -18.359375 3.65625 -19.390625 C 4.445312 -20.429688 5.378906 -21.332031 6.453125 -22.09375 C 7.523438 -22.851562 8.703125 -23.441406 9.984375 -23.859375 C 11.273438 -24.273438 12.632812 -24.484375 14.0625 -24.484375 C 15.476562 -24.484375 16.832031 -24.273438 18.125 -23.859375 C 19.414062 -23.441406 20.597656 -22.851562 21.671875 -22.09375 C 22.753906 -21.332031 23.691406 -20.429688 24.484375 -19.390625 C 25.273438 -18.359375 25.882812 -17.21875 26.3125 -15.96875 C 26.75 -14.71875 26.96875 -13.394531 26.96875 -12 C 26.96875 -10.613281 26.75 -9.289062 26.3125 -8.03125 C 25.882812 -6.78125 25.273438 -5.632812 24.484375 -4.59375 C 23.691406 -3.550781 22.753906 -2.644531 21.671875 -1.875 C 20.597656 -1.113281 19.414062 -0.523438 18.125 -0.109375 C 16.84375 0.304688 15.488281 0.515625 14.0625 0.515625 Z M 14.0625 -3.515625 C 15.238281 -3.515625 16.34375 -3.722656 17.375 -4.140625 C 18.414062 -4.566406 19.328125 -5.160156 20.109375 -5.921875 C 20.890625 -6.691406 21.5 -7.59375 21.9375 -8.625 C 22.382812 -9.65625 22.609375 -10.773438 22.609375 -11.984375 C 22.609375 -13.203125 22.382812 -14.328125 21.9375 -15.359375 C 21.5 -16.398438 20.890625 -17.300781 20.109375 -18.0625 C 19.328125 -18.832031 18.414062 -19.425781 17.375 -19.84375 C 16.34375 -20.269531 15.238281 -20.484375 14.0625 -20.484375 C 12.882812 -20.484375 11.78125 -20.269531 10.75 -19.84375 C 9.71875 -19.425781 8.8125 -18.832031 8.03125 -18.0625 C 7.25 -17.289062 6.640625 -16.390625 6.203125 -15.359375 C 5.765625 -14.328125 5.546875 -13.203125 5.546875 -11.984375 C 5.546875 -10.773438 5.765625 -9.65625 6.203125 -8.625 C 6.640625 -7.59375 7.25 -6.691406 8.03125 -5.921875 C 8.8125 -5.160156 9.71875 -4.566406 10.75 -4.140625 C 11.78125 -3.722656 12.882812 -3.515625 14.0625 -3.515625 Z M 14.0625 -3.515625 "/></g></g><g transform="translate(140.918141, 27.277334)"><g><path d="M 7.234375 0 L 2.84375 0 L 2.84375 -23.921875 L 7.234375 -23.921875 Z M 7.234375 0 "/></g></g><g transform="translate(150.983538, 27.277334)"><g><path d="M 18.03125 0 L 2.84375 0 L 2.84375 -23.921875 L 7.234375 -23.921875 L 7.234375 -3.921875 L 18.03125 -3.921875 Z M 18.03125 0 "/></g></g></g><g fill="#1b1b1b" fill-opacity="1"><g transform="translate(169.125889, 27.277334)"><g><path d="M 14.0625 0.515625 C 12.632812 0.515625 11.273438 0.304688 9.984375 -0.109375 C 8.703125 -0.523438 7.523438 -1.113281 6.453125 -1.875 C 5.378906 -2.644531 4.445312 -3.550781 3.65625 -4.59375 C 2.863281 -5.632812 2.25 -6.78125 1.8125 -8.03125 C 1.375 -9.289062 1.15625 -10.613281 1.15625 -12 C 1.15625 -13.394531 1.375 -14.71875 1.8125 -15.96875 C 2.25 -17.21875 2.863281 -18.359375 3.65625 -19.390625 C 4.445312 -20.429688 5.378906 -21.332031 6.453125 -22.09375 C 7.523438 -22.851562 8.703125 -23.441406 9.984375 -23.859375 C 11.273438 -24.273438 12.632812 -24.484375 14.0625 -24.484375 C 15.476562 -24.484375 16.832031 -24.273438 18.125 -23.859375 C 19.414062 -23.441406 20.597656 -22.851562 21.671875 -22.09375 C 22.753906 -21.332031 23.691406 -20.429688 24.484375 -19.390625 C 25.273438 -18.359375 25.882812 -17.21875 26.3125 -15.96875 C 26.75 -14.71875 26.96875 -13.394531 26.96875 -12 C 26.96875 -10.613281 26.75 -9.289062 26.3125 -8.03125 C 25.882812 -6.78125 25.273438 -5.632812 24.484375 -4.59375 C 23.691406 -3.550781 22.753906 -2.644531 21.671875 -1.875 C 20.597656 -1.113281 19.414062 -0.523438 18.125 -0.109375 C 16.84375 0.304688 15.488281 0.515625 14.0625 0.515625 Z M 14.0625 -3.515625 C 15.238281 -3.515625 16.34375 -3.722656 17.375 -4.140625 C 18.414062 -4.566406 19.328125 -5.160156 20.109375 -5.921875 C 20.890625 -6.691406 21.5 -7.59375 21.9375 -8.625 C 22.382812 -9.65625 22.609375 -10.773438 22.609375 -11.984375 C 22.609375 -13.203125 22.382812 -14.328125 21.9375 -15.359375 C 21.5 -16.398438 20.890625 -17.300781 20.109375 -18.0625 C 19.328125 -18.832031 18.414062 -19.425781 17.375 -19.84375 C 16.34375 -20.269531 15.238281 -20.484375 14.0625 -20.484375 C 12.882812 -20.484375 11.78125 -20.269531 10.75 -19.84375 C 9.71875 -19.425781 8.8125 -18.832031 8.03125 -18.0625 C 7.25 -17.289062 6.640625 -16.390625 6.203125 -15.359375 C 5.765625 -14.328125 5.546875 -13.203125 5.546875 -11.984375 C 5.546875 -10.773438 5.765625 -9.65625 6.203125 -8.625 C 6.640625 -7.59375 7.25 -6.691406 8.03125 -5.921875 C 8.8125 -5.160156 9.71875 -4.566406 10.75 -4.140625 C 11.78125 -3.722656 12.882812 -3.515625 14.0625 -3.515625 Z M 14.0625 -3.515625 "/></g></g></g></g></g><g transform="matrix(1, 0, 0, 1, 1067, 971)"><g clip-path="url(#6f3388a42c)"><g fill="#1b1b1b" fill-opacity="1"><g transform="translate(3.292874, 27.277334)"><g><path d="M 18.703125 0 L 1.234375 0 L 1.234375 -2.5 L 9.0625 -9.609375 C 10.070312 -10.523438 10.929688 -11.359375 11.640625 -12.109375 C 12.359375 -12.867188 12.910156 -13.597656 13.296875 -14.296875 C 13.679688 -15.003906 13.875 -15.738281 13.875 -16.5 C 13.875 -17.238281 13.707031 -17.894531 13.375 -18.46875 C 13.039062 -19.039062 12.578125 -19.488281 11.984375 -19.8125 C 11.390625 -20.132812 10.710938 -20.296875 9.953125 -20.296875 C 9.203125 -20.296875 8.5 -20.125 7.84375 -19.78125 C 7.195312 -19.445312 6.671875 -18.894531 6.265625 -18.125 C 5.867188 -17.363281 5.671875 -16.335938 5.671875 -15.046875 L 1.3125 -15.046875 C 1.3125 -15.972656 1.414062 -16.882812 1.625 -17.78125 C 1.832031 -18.675781 2.148438 -19.519531 2.578125 -20.3125 C 3.015625 -21.101562 3.570312 -21.796875 4.25 -22.390625 C 4.925781 -22.992188 5.726562 -23.46875 6.65625 -23.8125 C 7.582031 -24.15625 8.648438 -24.328125 9.859375 -24.328125 C 11.171875 -24.328125 12.34375 -24.125 13.375 -23.71875 C 14.414062 -23.320312 15.300781 -22.765625 16.03125 -22.046875 C 16.757812 -21.328125 17.3125 -20.492188 17.6875 -19.546875 C 18.070312 -18.597656 18.265625 -17.582031 18.265625 -16.5 C 18.265625 -15.457031 18.070312 -14.476562 17.6875 -13.5625 C 17.3125 -12.65625 16.78125 -11.789062 16.09375 -10.96875 C 15.40625 -10.144531 14.59375 -9.328125 13.65625 -8.515625 L 7.765625 -3.359375 L 9.734375 -3.78125 L 18.703125 -3.78125 Z M 18.703125 0 "/></g></g><g transform="translate(23.124522, 27.277334)"><g><path d="M 11.4375 0.546875 C 9.695312 0.546875 8.1875 0.21875 6.90625 -0.4375 C 5.625 -1.09375 4.554688 -1.992188 3.703125 -3.140625 C 2.847656 -4.285156 2.207031 -5.601562 1.78125 -7.09375 C 1.363281 -8.59375 1.15625 -10.179688 1.15625 -11.859375 C 1.15625 -13.609375 1.378906 -15.242188 1.828125 -16.765625 C 2.273438 -18.285156 2.9375 -19.625 3.8125 -20.78125 C 4.6875 -21.9375 5.753906 -22.835938 7.015625 -23.484375 C 8.285156 -24.140625 9.75 -24.46875 11.40625 -24.46875 C 12.863281 -24.46875 14.160156 -24.242188 15.296875 -23.796875 C 16.429688 -23.359375 17.398438 -22.738281 18.203125 -21.9375 C 19.015625 -21.144531 19.675781 -20.21875 20.1875 -19.15625 C 20.695312 -18.09375 21.070312 -16.945312 21.3125 -15.71875 C 21.5625 -14.488281 21.6875 -13.234375 21.6875 -11.953125 C 21.6875 -10.242188 21.472656 -8.632812 21.046875 -7.125 C 20.617188 -5.625 19.976562 -4.296875 19.125 -3.140625 C 18.269531 -1.992188 17.203125 -1.09375 15.921875 -0.4375 C 14.640625 0.21875 13.144531 0.546875 11.4375 0.546875 Z M 11.4375 -3.484375 C 12.65625 -3.484375 13.703125 -3.84375 14.578125 -4.5625 C 15.460938 -5.28125 16.140625 -6.273438 16.609375 -7.546875 C 17.078125 -8.828125 17.3125 -10.296875 17.3125 -11.953125 C 17.3125 -13.171875 17.179688 -14.296875 16.921875 -15.328125 C 16.660156 -16.359375 16.28125 -17.253906 15.78125 -18.015625 C 15.289062 -18.785156 14.675781 -19.378906 13.9375 -19.796875 C 13.207031 -20.222656 12.363281 -20.4375 11.40625 -20.4375 C 10.21875 -20.4375 9.179688 -20.078125 8.296875 -19.359375 C 7.421875 -18.640625 6.742188 -17.632812 6.265625 -16.34375 C 5.785156 -15.0625 5.546875 -13.578125 5.546875 -11.890625 C 5.546875 -10.253906 5.78125 -8.800781 6.25 -7.53125 C 6.71875 -6.257812 7.394531 -5.265625 8.28125 -4.546875 C 9.164062 -3.835938 10.21875 -3.484375 11.4375 -3.484375 Z M 11.4375 -3.484375 "/></g></g><g transform="translate(45.982827, 27.277334)"><g><path d="M 18.703125 0 L 1.234375 0 L 1.234375 -2.5 L 9.0625 -9.609375 C 10.070312 -10.523438 10.929688 -11.359375 11.640625 -12.109375 C 12.359375 -12.867188 12.910156 -13.597656 13.296875 -14.296875 C 13.679688 -15.003906 13.875 -15.738281 13.875 -16.5 C 13.875 -17.238281 13.707031 -17.894531 13.375 -18.46875 C 13.039062 -19.039062 12.578125 -19.488281 11.984375 -19.8125 C 11.390625 -20.132812 10.710938 -20.296875 9.953125 -20.296875 C 9.203125 -20.296875 8.5 -20.125 7.84375 -19.78125 C 7.195312 -19.445312 6.671875 -18.894531 6.265625 -18.125 C 5.867188 -17.363281 5.671875 -16.335938 5.671875 -15.046875 L 1.3125 -15.046875 C 1.3125 -15.972656 1.414062 -16.882812 1.625 -17.78125 C 1.832031 -18.675781 2.148438 -19.519531 2.578125 -20.3125 C 3.015625 -21.101562 3.570312 -21.796875 4.25 -22.390625 C 4.925781 -22.992188 5.726562 -23.46875 6.65625 -23.8125 C 7.582031 -24.15625 8.648438 -24.328125 9.859375 -24.328125 C 11.171875 -24.328125 12.34375 -24.125 13.375 -23.71875 C 14.414062 -23.320312 15.300781 -22.765625 16.03125 -22.046875 C 16.757812 -21.328125 17.3125 -20.492188 17.6875 -19.546875 C 18.070312 -18.597656 18.265625 -17.582031 18.265625 -16.5 C 18.265625 -15.457031 18.070312 -14.476562 17.6875 -13.5625 C 17.3125 -12.65625 16.78125 -11.789062 16.09375 -10.96875 C 15.40625 -10.144531 14.59375 -9.328125 13.65625 -8.515625 L 7.765625 -3.359375 L 9.734375 -3.78125 L 18.703125 -3.78125 Z M 18.703125 0 "/></g></g><g transform="translate(65.814475, 27.277334)"><g><path d="M 10.015625 0.515625 C 8.703125 0.515625 7.507812 0.304688 6.4375 -0.109375 C 5.363281 -0.523438 4.4375 -1.101562 3.65625 -1.84375 C 2.882812 -2.59375 2.289062 -3.457031 1.875 -4.4375 C 1.457031 -5.425781 1.25 -6.492188 1.25 -7.640625 C 1.25 -8.253906 1.300781 -8.835938 1.40625 -9.390625 C 1.519531 -9.941406 1.695312 -10.503906 1.9375 -11.078125 C 2.1875 -11.660156 2.503906 -12.285156 2.890625 -12.953125 C 3.273438 -13.628906 3.742188 -14.398438 4.296875 -15.265625 L 9.78125 -23.921875 L 14.828125 -23.921875 L 8.828125 -14.78125 C 9.179688 -14.976562 9.554688 -15.132812 9.953125 -15.25 C 10.359375 -15.363281 10.765625 -15.421875 11.171875 -15.421875 C 12.171875 -15.421875 13.125 -15.226562 14.03125 -14.84375 C 14.9375 -14.46875 15.75 -13.929688 16.46875 -13.234375 C 17.1875 -12.535156 17.75 -11.710938 18.15625 -10.765625 C 18.5625 -9.816406 18.765625 -8.773438 18.765625 -7.640625 C 18.765625 -6.492188 18.554688 -5.425781 18.140625 -4.4375 C 17.722656 -3.457031 17.128906 -2.59375 16.359375 -1.84375 C 15.585938 -1.101562 14.664062 -0.523438 13.59375 -0.109375 C 12.519531 0.304688 11.328125 0.515625 10.015625 0.515625 Z M 10.03125 -3.484375 C 10.820312 -3.484375 11.519531 -3.65625 12.125 -4 C 12.738281 -4.34375 13.222656 -4.828125 13.578125 -5.453125 C 13.929688 -6.078125 14.109375 -6.785156 14.109375 -7.578125 C 14.109375 -8.378906 13.929688 -9.09375 13.578125 -9.71875 C 13.222656 -10.34375 12.738281 -10.832031 12.125 -11.1875 C 11.519531 -11.550781 10.820312 -11.734375 10.03125 -11.734375 C 9.363281 -11.734375 8.769531 -11.609375 8.25 -11.359375 C 7.738281 -11.117188 7.304688 -10.789062 6.953125 -10.375 C 6.597656 -9.96875 6.332031 -9.519531 6.15625 -9.03125 C 5.976562 -8.539062 5.890625 -8.054688 5.890625 -7.578125 C 5.890625 -6.785156 6.066406 -6.078125 6.421875 -5.453125 C 6.785156 -4.828125 7.273438 -4.34375 7.890625 -4 C 8.515625 -3.65625 9.226562 -3.484375 10.03125 -3.484375 Z M 10.03125 -3.484375 "/></g></g></g></g></g></svg>